<svg xmlns="http://www.w3.org/2000/svg" width="1100" height="700" viewBox="0 0 1100 700">
<rect width="100%" height="100%" fill="white"/>
<style>text{font-family:Arial,Helvetica,sans-serif;fill:#1f2937}.small{font-size:13px}.tick{font-size:12px;fill:#4b5563}.title{font-size:22px;font-weight:700}.axis{font-size:15px;font-weight:600}.label{font-size:12px}.job{font-size:11px;fill:#374151}</style>
<text x="550.0" y="36" text-anchor="middle" class="title">Pareto Curve: TPS/User vs Total TPS/GPU</text>
<text x="550.0" y="58" text-anchor="middle" class="small">Rows 4-18, Pareto points labeled by row and job id</text>
<line x1="105" x2="1045" y1="600.0" y2="600.0" stroke="#e5e7eb"/>
<text x="93" y="604.0" text-anchor="end" class="tick">0</text>
<line x1="105" x2="1045" y1="525.7" y2="525.7" stroke="#e5e7eb"/>
<text x="93" y="529.7" text-anchor="end" class="tick">5,000</text>
<line x1="105" x2="1045" y1="451.4" y2="451.4" stroke="#e5e7eb"/>
<text x="93" y="455.4" text-anchor="end" class="tick">10,000</text>
<line x1="105" x2="1045" y1="377.1" y2="377.1" stroke="#e5e7eb"/>
<text x="93" y="381.1" text-anchor="end" class="tick">15,000</text>
<line x1="105" x2="1045" y1="302.9" y2="302.9" stroke="#e5e7eb"/>
<text x="93" y="306.9" text-anchor="end" class="tick">20,000</text>
<line x1="105" x2="1045" y1="228.6" y2="228.6" stroke="#e5e7eb"/>
<text x="93" y="232.6" text-anchor="end" class="tick">25,000</text>
<line x1="105" x2="1045" y1="154.3" y2="154.3" stroke="#e5e7eb"/>
<text x="93" y="158.3" text-anchor="end" class="tick">30,000</text>
<line x1="105" x2="1045" y1="80.0" y2="80.0" stroke="#e5e7eb"/>
<text x="93" y="84.0" text-anchor="end" class="tick">35,000</text>
<line x1="125.0" x2="125.0" y1="80" y2="600" stroke="#f1f5f9"/>
<text x="125.0" y="624" text-anchor="middle" class="tick">50</text>
<line x1="225.0" x2="225.0" y1="80" y2="600" stroke="#f1f5f9"/>
<text x="225.0" y="624" text-anchor="middle" class="tick">60</text>
<line x1="325.0" x2="325.0" y1="80" y2="600" stroke="#f1f5f9"/>
<text x="325.0" y="624" text-anchor="middle" class="tick">70</text>
<line x1="425.0" x2="425.0" y1="80" y2="600" stroke="#f1f5f9"/>
<text x="425.0" y="624" text-anchor="middle" class="tick">80</text>
<line x1="525.0" x2="525.0" y1="80" y2="600" stroke="#f1f5f9"/>
<text x="525.0" y="624" text-anchor="middle" class="tick">90</text>
<line x1="625.0" x2="625.0" y1="80" y2="600" stroke="#f1f5f9"/>
<text x="625.0" y="624" text-anchor="middle" class="tick">100</text>
<line x1="725.0" x2="725.0" y1="80" y2="600" stroke="#f1f5f9"/>
<text x="725.0" y="624" text-anchor="middle" class="tick">110</text>
<line x1="825.0" x2="825.0" y1="80" y2="600" stroke="#f1f5f9"/>
<text x="825.0" y="624" text-anchor="middle" class="tick">120</text>
<line x1="925.0" x2="925.0" y1="80" y2="600" stroke="#f1f5f9"/>
<text x="925.0" y="624" text-anchor="middle" class="tick">130</text>
<line x1="1025.0" x2="1025.0" y1="80" y2="600" stroke="#f1f5f9"/>
<text x="1025.0" y="624" text-anchor="middle" class="tick">140</text>
<line x1="105" x2="1045" y1="600" y2="600" stroke="#111827" stroke-width="1.5"/>
<line x1="105" x2="105" y1="80" y2="600" stroke="#111827" stroke-width="1.5"/>
<text x="575.0" y="664" text-anchor="middle" class="axis">TPS/User (1/median TPOT)</text>
<text x="22" y="340.0" text-anchor="middle" class="axis" transform="rotate(-90 22 340.0)">total TPS/GPU</text>
<circle cx="985.0" cy="594.9" r="5" fill="#9ca3af" opacity="0.7"/>
<circle cx="658.0" cy="575.1" r="5" fill="#9ca3af" opacity="0.7"/>
<circle cx="549.2" cy="534.6" r="5" fill="#9ca3af" opacity="0.7"/>
<circle cx="511.5" cy="537.3" r="5" fill="#9ca3af" opacity="0.7"/>
<circle cx="530.7" cy="540.5" r="5" fill="#9ca3af" opacity="0.7"/>
<circle cx="459.7" cy="475.6" r="5" fill="#9ca3af" opacity="0.7"/>
<circle cx="479.7" cy="447.2" r="5" fill="#9ca3af" opacity="0.7"/>
<circle cx="227.7" cy="334.8" r="5" fill="#9ca3af" opacity="0.7"/>
<circle cx="394.0" cy="530.0" r="5" fill="#9ca3af" opacity="0.7"/>
<circle cx="310.0" cy="190.7" r="5" fill="#9ca3af" opacity="0.7"/>
<circle cx="408.0" cy="363.1" r="5" fill="#9ca3af" opacity="0.7"/>
<circle cx="165.0" cy="177.8" r="5" fill="#9ca3af" opacity="0.7"/>
<circle cx="224.0" cy="369.3" r="5" fill="#9ca3af" opacity="0.7"/>
<circle cx="227.4" cy="114.0" r="5" fill="#9ca3af" opacity="0.7"/>
<circle cx="264.0" cy="177.5" r="5" fill="#9ca3af" opacity="0.7"/>
<polyline points="227.4,114.0 264.0,177.5 310.0,190.7 408.0,363.1 479.7,447.2 549.2,534.6 658.0,575.1 985.0,594.9" fill="none" stroke="#0b5cad" stroke-width="3" stroke-linejoin="round"/>
<circle cx="985.0" cy="594.9" r="7" fill="#0b5cad" stroke="white" stroke-width="2"/>
<circle cx="658.0" cy="575.1" r="7" fill="#0b5cad" stroke="white" stroke-width="2"/>
<circle cx="549.2" cy="534.6" r="7" fill="#0b5cad" stroke="white" stroke-width="2"/>
<circle cx="479.7" cy="447.2" r="7" fill="#0b5cad" stroke="white" stroke-width="2"/>
<circle cx="310.0" cy="190.7" r="7" fill="#0b5cad" stroke="white" stroke-width="2"/>
<circle cx="408.0" cy="363.1" r="7" fill="#0b5cad" stroke="white" stroke-width="2"/>
<circle cx="227.4" cy="114.0" r="7" fill="#0b5cad" stroke="white" stroke-width="2"/>
<circle cx="264.0" cy="177.5" r="7" fill="#0b5cad" stroke="white" stroke-width="2"/>
<line x1="985.0" y1="594.9" x2="973.0" y2="584.9" stroke="#94a3b8"/>
<rect x="897.0" y="569.9" width="76" height="35" rx="4" fill="white" stroke="#cbd5e1" opacity="0.94"/>
<text x="967.0" y="584.9" text-anchor="end" class="label">R4</text>
<text x="967.0" y="598.9" text-anchor="end" class="job">2117759</text>
<line x1="658.0" y1="575.1" x2="668.0" y2="567.1" stroke="#94a3b8"/>
<rect x="666.0" y="552.1" width="76" height="35" rx="4" fill="white" stroke="#cbd5e1" opacity="0.94"/>
<text x="673.0" y="567.1" text-anchor="start" class="label">R5</text>
<text x="673.0" y="581.1" text-anchor="start" class="job">2108167</text>
<line x1="549.2" y1="534.6" x2="559.2" y2="526.6" stroke="#94a3b8"/>
<rect x="557.2" y="511.6" width="76" height="35" rx="4" fill="white" stroke="#cbd5e1" opacity="0.94"/>
<text x="564.2" y="526.6" text-anchor="start" class="label">R6</text>
<text x="564.2" y="540.6" text-anchor="start" class="job">2108001</text>
<line x1="479.7" y1="447.2" x2="489.7" y2="437.2" stroke="#94a3b8"/>
<rect x="487.7" y="422.2" width="76" height="35" rx="4" fill="white" stroke="#cbd5e1" opacity="0.94"/>
<text x="494.7" y="437.2" text-anchor="start" class="label">R10</text>
<text x="494.7" y="451.2" text-anchor="start" class="job">2102170</text>
<line x1="310.0" y1="190.7" x2="320.0" y2="166.7" stroke="#94a3b8"/>
<rect x="318.0" y="151.7" width="76" height="35" rx="4" fill="white" stroke="#cbd5e1" opacity="0.94"/>
<text x="325.0" y="166.7" text-anchor="start" class="label">R13</text>
<text x="325.0" y="180.7" text-anchor="start" class="job">2106740</text>
<line x1="408.0" y1="363.1" x2="418.0" y2="347.1" stroke="#94a3b8"/>
<rect x="416.0" y="332.1" width="76" height="35" rx="4" fill="white" stroke="#cbd5e1" opacity="0.94"/>
<text x="423.0" y="347.1" text-anchor="start" class="label">R14</text>
<text x="423.0" y="361.1" text-anchor="start" class="job">2109702</text>
<line x1="227.4" y1="114.0" x2="237.4" y2="82.0" stroke="#94a3b8"/>
<rect x="235.4" y="67.0" width="76" height="35" rx="4" fill="white" stroke="#cbd5e1" opacity="0.94"/>
<text x="242.4" y="82.0" text-anchor="start" class="label">R17</text>
<text x="242.4" y="96.0" text-anchor="start" class="job">2132800</text>
<line x1="264.0" y1="177.5" x2="274.0" y2="177.5" stroke="#94a3b8"/>
<rect x="272.0" y="162.5" width="76" height="35" rx="4" fill="white" stroke="#cbd5e1" opacity="0.94"/>
<text x="279.0" y="177.5" text-anchor="start" class="label">R18</text>
<text x="279.0" y="191.5" text-anchor="start" class="job">2107404</text>
<circle cx="880" cy="100" r="5" fill="#9ca3af" opacity="0.7"/><text x="895" y="104" class="small">Rows 4-18</text>
<line x1="875" y1="128" x2="900" y2="128" stroke="#0b5cad" stroke-width="3"/><circle cx="888" cy="128" r="5" fill="#0b5cad"/><text x="910" y="132" class="small">Pareto frontier</text>
</svg>
